<svg width="35" height="35" viewBox="0 0 35 35" fill="none" xmlns="http://www.w3.org/2000/svg">
<path opacity="0.4" d="M31.5875 15.225L30.1583 21.3208C28.9333 26.5854 26.5125 28.7146 21.9625 28.2771C21.2333 28.2187 20.4458 28.0875 19.6 27.8833L17.15 27.3C11.0687 25.8562 9.18748 22.8521 10.6166 16.7562L12.0458 10.6458C12.3375 9.40624 12.6875 8.32708 13.125 7.43749C14.8312 3.90832 17.7333 2.96041 22.6041 4.11249L25.0396 4.68124C31.15 6.11041 33.0166 9.12916 31.5875 15.225Z" fill="#977CFF"/>
<path d="M21.9625 28.2771C21.0583 28.8896 19.9208 29.4 18.5354 29.8521L16.2313 30.6104C10.4417 32.4771 7.39376 30.9167 5.51251 25.1271L3.64584 19.3667C1.77918 13.5771 3.32501 10.5146 9.11459 8.64792L11.4188 7.88958C12.0167 7.7 12.5854 7.53958 13.125 7.4375C12.6875 8.32708 12.3375 9.40625 12.0458 10.6458L10.6167 16.7563C9.18751 22.8521 11.0688 25.8562 17.15 27.3L19.6 27.8833C20.4458 28.0875 21.2333 28.2188 21.9625 28.2771Z" fill="#977CFF"/>
<path d="M25.5062 15.3271C25.4187 15.3271 25.3312 15.3125 25.2292 15.2979L18.1563 13.5041C17.5729 13.3583 17.2229 12.7604 17.3688 12.1771C17.5146 11.5937 18.1125 11.2437 18.6958 11.3896L25.7688 13.1833C26.3521 13.3291 26.7021 13.9271 26.5562 14.5104C26.4396 14.9916 25.9875 15.3271 25.5062 15.3271Z" fill="#977CFF"/>
<path d="M21.2334 20.2563C21.1459 20.2563 21.0584 20.2417 20.9563 20.2271L16.7125 19.1479C16.1292 19.0021 15.7792 18.4042 15.925 17.8209C16.0709 17.2375 16.6688 16.8875 17.2521 17.0334L21.4959 18.1125C22.0792 18.2584 22.4292 18.8563 22.2834 19.4396C22.1667 19.9354 21.7292 20.2563 21.2334 20.2563Z" fill="#977CFF"/>
</svg>
