<svg width="36" height="36" viewBox="0 0 36 36" fill="none" xmlns="http://www.w3.org/2000/svg">
<path opacity="0.4" d="M10.665 8.93999L24.195 4.42499C30.27 2.39999 33.57 5.71499 31.56 11.79L27.045 25.32C24.015 34.425 19.035 34.425 16.005 25.32L14.67 21.3L10.65 19.965C1.56001 16.95 1.56001 11.985 10.665 8.93999Z" fill="#977CFF"/>
<path d="M18.18 17.445L23.895 11.715L18.18 17.445Z" fill="#977CFF"/>
<path d="M18.18 18.57C17.895 18.57 17.61 18.465 17.385 18.24C16.95 17.805 16.95 17.085 17.385 16.65L23.085 10.92C23.52 10.485 24.24 10.485 24.675 10.92C25.11 11.355 25.11 12.075 24.675 12.51L18.975 18.24C18.75 18.45 18.465 18.57 18.18 18.57Z" fill="#977CFF"/>
</svg>
