<svg width="35" height="35" viewBox="0 0 35 35" fill="none" xmlns="http://www.w3.org/2000/svg">
<path opacity="0.4" d="M26.8041 18.725V25.9146C26.8041 27.7666 25.3604 29.75 23.625 30.3333L18.9729 31.8791C18.1562 32.1562 16.8291 32.1562 16.0271 31.8791L11.375 30.3333C9.62497 29.75 8.1958 27.7666 8.1958 25.9146L8.21038 18.725L14.6562 22.925C16.2312 23.9604 18.8271 23.9604 20.4021 22.925L26.8041 18.725Z" fill="#977CFF"/>
<path d="M29.1375 9.42084L20.4021 3.68959C18.8271 2.65417 16.2312 2.65417 14.6562 3.68959L5.87705 9.42084C3.06247 11.2438 3.06247 15.3708 5.87705 17.2083L8.21038 18.725L14.6562 22.925C16.2312 23.9604 18.8271 23.9604 20.4021 22.925L26.8041 18.725L28.8021 17.4125V21.875C28.8021 22.4729 29.2979 22.9688 29.8958 22.9688C30.4937 22.9688 30.9896 22.4729 30.9896 21.875V14.7C31.5729 12.8188 30.975 10.6313 29.1375 9.42084Z" fill="#977CFF"/>
</svg>
